<svg width="50" height="49" viewBox="0 0 50 49" fill="none" xmlns="http://www.w3.org/2000/svg">
<path d="M21.7926 22C20.7909 22 20 22.9009 20 24C20 25.0991 20.8084 26 21.7926 26C22.7944 26 23.5852 25.0991 23.5852 24C23.6028 22.9009 22.7944 22 21.7926 22ZM28.2074 22C27.2056 22 26.4148 22.9009 26.4148 24C26.4148 25.0991 27.2232 26 28.2074 26C29.2091 26 30 25.0991 30 24C30 22.9009 29.2091 22 28.2074 22Z" fill="#7289DA"/>
<path d="M37.2514 6H12.7486C10.6823 6 9 7.702 9 9.811V34.823C9 36.932 10.6823 38.634 12.7486 38.634H33.4846L32.5154 35.2115L34.856 37.413L37.0686 39.485L41 43V9.811C41 7.702 39.3177 6 37.2514 6ZM30.1931 30.161C30.1931 30.161 29.5349 29.3655 28.9863 28.6625C31.3817 27.978 32.296 26.461 32.296 26.461C31.5463 26.9605 30.8331 27.312 30.1931 27.5525C29.2789 27.941 28.4011 28.2 27.5417 28.348C25.7863 28.681 24.1771 28.5885 22.8057 28.3295C21.7634 28.126 20.8674 27.83 20.1177 27.534C19.6971 27.3675 19.24 27.164 18.7829 26.905C18.728 26.868 18.6731 26.8495 18.6183 26.8125C18.5817 26.794 18.5634 26.7755 18.5451 26.757C18.216 26.572 18.0331 26.4425 18.0331 26.4425C18.0331 26.4425 18.9109 27.9225 21.2331 28.6255C20.6846 29.3285 20.008 30.161 20.008 30.161C15.9669 30.0315 14.4309 27.349 14.4309 27.349C14.4309 21.392 17.064 16.5635 17.064 16.5635C19.6971 14.5655 22.2023 14.621 22.2023 14.621L22.3851 14.843C19.0937 15.805 17.576 17.2665 17.576 17.2665C17.576 17.2665 17.9783 17.0445 18.6549 16.73C20.6114 15.8605 22.1657 15.62 22.8057 15.5645C22.9154 15.546 23.0069 15.5275 23.1166 15.5275C24.232 15.3795 25.4937 15.3425 26.8103 15.4905C28.5474 15.694 30.4126 16.212 32.3143 17.2665C32.3143 17.2665 30.8697 15.879 27.7611 14.917L28.0171 14.621C28.0171 14.621 30.5223 14.5655 33.1554 16.5635C33.1554 16.5635 35.7886 21.392 35.7886 27.349C35.7886 27.349 34.2343 30.0315 30.1931 30.161V30.161Z" fill="#7289DA"/>
</svg>
