<svg width="157" height="60" viewBox="0 0 157 60" fill="none" xmlns="http://www.w3.org/2000/svg">
<path d="M80.7656 26.2344C79.5625 26.2344 78.5234 25.9844 77.6484 25.4844C76.7786 24.9792 76.1094 24.2656 75.6406 23.3438C75.1719 22.4167 74.9375 21.3255 74.9375 20.0703C74.9375 18.8359 75.1719 17.7526 75.6406 16.8203C76.1146 15.8828 76.776 15.1536 77.625 14.6328C78.474 14.1068 79.4714 13.8438 80.6172 13.8438C81.3568 13.8438 82.0547 13.9635 82.7109 14.2031C83.3724 14.4375 83.9557 14.8021 84.4609 15.2969C84.9714 15.7917 85.3724 16.4219 85.6641 17.1875C85.9557 17.9479 86.1016 18.8542 86.1016 19.9062V20.7734H76.2656V18.8672H83.3906C83.3854 18.3255 83.2682 17.8437 83.0391 17.4219C82.8099 16.9948 82.4896 16.6589 82.0781 16.4141C81.6719 16.1693 81.1979 16.0469 80.6562 16.0469C80.0781 16.0469 79.5703 16.1875 79.1328 16.4688C78.6953 16.7448 78.3542 17.1094 78.1094 17.5625C77.8698 18.0104 77.7474 18.5026 77.7422 19.0391V20.7031C77.7422 21.401 77.8698 22 78.125 22.5C78.3802 22.9948 78.737 23.375 79.1953 23.6406C79.6536 23.901 80.1901 24.0312 80.8047 24.0312C81.2161 24.0312 81.5885 23.974 81.9219 23.8594C82.2552 23.7396 82.5443 23.5651 82.7891 23.3359C83.0339 23.1068 83.2188 22.8229 83.3438 22.4844L85.9844 22.7812C85.8177 23.4792 85.5 24.0885 85.0313 24.6094C84.5677 25.125 83.974 25.526 83.25 25.8125C82.526 26.0938 81.6979 26.2344 80.7656 26.2344Z" fill="#30333C"/>
<path d="M91.3223 18.9688V26H88.4941V14H91.1973V16.0391H91.3379C91.6139 15.3672 92.054 14.8333 92.6582 14.4375C93.2676 14.0417 94.0202 13.8438 94.916 13.8438C95.7441 13.8438 96.4655 14.0208 97.0801 14.375C97.6999 14.7292 98.179 15.2422 98.5176 15.9141C98.8613 16.5859 99.0306 17.401 99.0254 18.3594V26H96.1973V18.7969C96.1973 17.9948 95.9889 17.3672 95.5723 16.9141C95.1608 16.4609 94.5905 16.2344 93.8613 16.2344C93.3665 16.2344 92.9264 16.3437 92.541 16.5625C92.1608 16.776 91.8613 17.0859 91.6426 17.4922C91.429 17.8984 91.3223 18.3906 91.3223 18.9688Z" fill="#30333C"/>
<path d="M80.7656 50.2344C79.5625 50.2344 78.5234 49.9844 77.6484 49.4844C76.7786 48.9792 76.1094 48.2656 75.6406 47.3438C75.1719 46.4167 74.9375 45.3255 74.9375 44.0703C74.9375 42.8359 75.1719 41.7526 75.6406 40.8203C76.1146 39.8828 76.776 39.1536 77.625 38.6328C78.474 38.1068 79.4714 37.8438 80.6172 37.8438C81.3568 37.8438 82.0547 37.9635 82.7109 38.2031C83.3724 38.4375 83.9557 38.8021 84.4609 39.2969C84.9714 39.7917 85.3724 40.4219 85.6641 41.1875C85.9557 41.9479 86.1016 42.8542 86.1016 43.9062V44.7734H76.2656V42.8672H83.3906C83.3854 42.3255 83.2682 41.8437 83.0391 41.4219C82.8099 40.9948 82.4896 40.6589 82.0781 40.4141C81.6719 40.1693 81.1979 40.0469 80.6562 40.0469C80.0781 40.0469 79.5703 40.1875 79.1328 40.4688C78.6953 40.7448 78.3542 41.1094 78.1094 41.5625C77.8698 42.0104 77.7474 42.5026 77.7422 43.0391V44.7031C77.7422 45.401 77.8698 46 78.125 46.5C78.3802 46.9948 78.737 47.375 79.1953 47.6406C79.6536 47.901 80.1901 48.0312 80.8047 48.0312C81.2161 48.0312 81.5885 47.974 81.9219 47.8594C82.2552 47.7396 82.5443 47.5651 82.7891 47.3359C83.0339 47.1068 83.2188 46.8229 83.3438 46.4844L85.9844 46.7812C85.8177 47.4792 85.5 48.0885 85.0313 48.6094C84.5677 49.125 83.974 49.526 83.25 49.8125C82.526 50.0938 81.6979 50.2344 80.7656 50.2344Z" fill="#30333C"/>
<path d="M97.9785 41.1719L95.4004 41.4531C95.3275 41.1927 95.1999 40.9479 95.0176 40.7188C94.8405 40.4896 94.6009 40.3047 94.2988 40.1641C93.9967 40.0234 93.627 39.9531 93.1895 39.9531C92.6009 39.9531 92.1061 40.0807 91.7051 40.3359C91.3092 40.5911 91.1139 40.9219 91.1191 41.3281C91.1139 41.6771 91.2415 41.9609 91.502 42.1797C91.7676 42.3984 92.2051 42.5781 92.8145 42.7188L94.8613 43.1562C95.9967 43.401 96.8405 43.7891 97.3926 44.3203C97.9499 44.8516 98.2311 45.5469 98.2363 46.4062C98.2311 47.1615 98.0098 47.8281 97.5723 48.4062C97.14 48.9792 96.5384 49.4271 95.7676 49.75C94.9967 50.0729 94.1113 50.2344 93.1113 50.2344C91.6426 50.2344 90.4603 49.9271 89.5645 49.3125C88.6686 48.6927 88.1348 47.8307 87.9629 46.7266L90.7207 46.4609C90.8457 47.0026 91.1113 47.4115 91.5176 47.6875C91.9238 47.9635 92.4525 48.1016 93.1035 48.1016C93.7754 48.1016 94.3145 47.9635 94.7207 47.6875C95.1322 47.4115 95.3379 47.0703 95.3379 46.6641C95.3379 46.3203 95.2051 46.0365 94.9395 45.8125C94.679 45.5885 94.2728 45.4167 93.7207 45.2969L91.6738 44.8672C90.5228 44.6276 89.6712 44.224 89.1191 43.6562C88.5671 43.0833 88.2936 42.3594 88.2988 41.4844C88.2936 40.7448 88.4941 40.1042 88.9004 39.5625C89.3118 39.0156 89.8822 38.5938 90.6113 38.2969C91.3457 37.9948 92.1921 37.8438 93.1504 37.8438C94.5566 37.8438 95.6634 38.1432 96.4707 38.7422C97.2832 39.3411 97.7858 40.151 97.9785 41.1719Z" fill="#30333C"/>
<path d="M100.568 54.5V38H103.35V39.9844H103.514C103.66 39.6927 103.865 39.3828 104.131 39.0547C104.396 38.7214 104.756 38.4375 105.209 38.2031C105.662 37.9635 106.24 37.8438 106.943 37.8438C107.87 37.8438 108.706 38.0807 109.451 38.5547C110.201 39.0234 110.795 39.7188 111.232 40.6406C111.675 41.5573 111.896 42.6823 111.896 44.0156C111.896 45.3333 111.68 46.4531 111.248 47.375C110.816 48.2969 110.227 49 109.482 49.4844C108.738 49.9688 107.894 50.2109 106.951 50.2109C106.264 50.2109 105.693 50.0964 105.24 49.8672C104.787 49.638 104.423 49.362 104.146 49.0391C103.876 48.7109 103.665 48.401 103.514 48.1094H103.396V54.5H100.568ZM103.342 44C103.342 44.776 103.451 45.4557 103.67 46.0391C103.894 46.6224 104.214 47.0781 104.631 47.4062C105.053 47.7292 105.563 47.8906 106.162 47.8906C106.787 47.8906 107.311 47.724 107.732 47.3906C108.154 47.0521 108.472 46.5911 108.686 46.0078C108.904 45.4193 109.014 44.75 109.014 44C109.014 43.2552 108.907 42.5938 108.693 42.0156C108.48 41.4375 108.162 40.9844 107.74 40.6562C107.318 40.3281 106.792 40.1641 106.162 40.1641C105.558 40.1641 105.045 40.3229 104.623 40.6406C104.201 40.9583 103.881 41.4036 103.662 41.9766C103.449 42.5495 103.342 43.224 103.342 44Z" fill="#30333C"/>
<path d="M117.771 50.2422C117.011 50.2422 116.326 50.1068 115.717 49.8359C115.113 49.5599 114.633 49.1536 114.279 48.6172C113.93 48.0807 113.756 47.4193 113.756 46.6328C113.756 45.9557 113.881 45.3958 114.131 44.9531C114.381 44.5104 114.722 44.1563 115.154 43.8906C115.587 43.625 116.074 43.4245 116.615 43.2891C117.162 43.1484 117.727 43.0469 118.311 42.9844C119.014 42.9115 119.584 42.8464 120.021 42.7891C120.459 42.7266 120.777 42.6328 120.975 42.5078C121.178 42.3776 121.279 42.1771 121.279 41.9062V41.8594C121.279 41.2708 121.105 40.8151 120.756 40.4922C120.407 40.1693 119.904 40.0078 119.248 40.0078C118.555 40.0078 118.006 40.1589 117.6 40.4609C117.199 40.763 116.928 41.1198 116.787 41.5312L114.146 41.1562C114.355 40.4271 114.699 39.8177 115.178 39.3281C115.657 38.8333 116.243 38.4635 116.936 38.2188C117.628 37.9688 118.394 37.8438 119.232 37.8438C119.811 37.8438 120.386 37.9115 120.959 38.0469C121.532 38.1823 122.055 38.4063 122.529 38.7188C123.003 39.026 123.383 39.4453 123.67 39.9766C123.962 40.5078 124.107 41.1719 124.107 41.9688V50H121.389V48.3516H121.295C121.123 48.6849 120.881 48.9974 120.568 49.2891C120.261 49.5755 119.873 49.8073 119.404 49.9844C118.941 50.1563 118.396 50.2422 117.771 50.2422ZM118.506 48.1641C119.074 48.1641 119.566 48.0521 119.982 47.8281C120.399 47.599 120.719 47.2969 120.943 46.9219C121.173 46.5469 121.287 46.138 121.287 45.6953V44.2812C121.199 44.3542 121.048 44.4219 120.834 44.4844C120.626 44.5469 120.391 44.6016 120.131 44.6484C119.87 44.6953 119.613 44.737 119.357 44.7734C119.102 44.8099 118.881 44.8411 118.693 44.8672C118.271 44.9245 117.894 45.0182 117.561 45.1484C117.227 45.2786 116.964 45.4609 116.771 45.6953C116.579 45.9245 116.482 46.2214 116.482 46.5859C116.482 47.1068 116.673 47.5 117.053 47.7656C117.433 48.0312 117.917 48.1641 118.506 48.1641Z" fill="#30333C"/>
<path d="M129.779 42.9688V50H126.951V38H129.654V40.0391H129.795C130.071 39.3672 130.511 38.8333 131.115 38.4375C131.725 38.0417 132.477 37.8438 133.373 37.8438C134.201 37.8438 134.923 38.0208 135.537 38.375C136.157 38.7292 136.636 39.2422 136.975 39.9141C137.318 40.5859 137.488 41.401 137.482 42.3594V50H134.654V42.7969C134.654 41.9948 134.446 41.3672 134.029 40.9141C133.618 40.4609 133.048 40.2344 132.318 40.2344C131.824 40.2344 131.383 40.3437 130.998 40.5625C130.618 40.776 130.318 41.0859 130.1 41.4922C129.886 41.8984 129.779 42.3906 129.779 42.9688ZM129.912 36.5391L128.201 36.5C128.201 35.5729 128.441 34.8464 128.92 34.3203C129.399 33.7943 129.99 33.5312 130.693 33.5312C131.032 33.5312 131.326 33.5885 131.576 33.7031C131.826 33.8125 132.055 33.9401 132.264 34.0859C132.477 34.2318 132.686 34.362 132.889 34.4766C133.092 34.5859 133.316 34.6406 133.561 34.6406C133.857 34.6406 134.092 34.5286 134.264 34.3047C134.441 34.0807 134.532 33.7943 134.537 33.4453L136.217 33.5156C136.212 34.4479 135.969 35.1719 135.49 35.6875C135.011 36.1979 134.423 36.4557 133.725 36.4609C133.35 36.4661 133.035 36.4115 132.779 36.2969C132.524 36.1823 132.3 36.0521 132.107 35.9062C131.92 35.7604 131.73 35.6328 131.537 35.5234C131.344 35.4089 131.118 35.3516 130.857 35.3516C130.581 35.3516 130.355 35.4609 130.178 35.6797C130.001 35.8984 129.912 36.1849 129.912 36.5391Z" fill="#30333C"/>
<path d="M145.592 50.2344C144.42 50.2344 143.404 49.9766 142.545 49.4609C141.686 48.9453 141.019 48.224 140.545 47.2969C140.076 46.3698 139.842 45.2865 139.842 44.0469C139.842 42.8073 140.076 41.7214 140.545 40.7891C141.019 39.8568 141.686 39.1328 142.545 38.6172C143.404 38.1016 144.42 37.8438 145.592 37.8438C146.764 37.8438 147.779 38.1016 148.639 38.6172C149.498 39.1328 150.162 39.8568 150.631 40.7891C151.105 41.7214 151.342 42.8073 151.342 44.0469C151.342 45.2865 151.105 46.3698 150.631 47.2969C150.162 48.224 149.498 48.9453 148.639 49.4609C147.779 49.9766 146.764 50.2344 145.592 50.2344ZM145.607 47.9688C146.243 47.9688 146.774 47.7943 147.201 47.4453C147.628 47.0911 147.946 46.6172 148.154 46.0234C148.368 45.4297 148.475 44.7682 148.475 44.0391C148.475 43.3047 148.368 42.6406 148.154 42.0469C147.946 41.4479 147.628 40.9714 147.201 40.6172C146.774 40.263 146.243 40.0859 145.607 40.0859C144.956 40.0859 144.415 40.263 143.982 40.6172C143.555 40.9714 143.235 41.4479 143.021 42.0469C142.813 42.6406 142.709 43.3047 142.709 44.0391C142.709 44.7682 142.813 45.4297 143.021 46.0234C143.235 46.6172 143.555 47.0911 143.982 47.4453C144.415 47.7943 144.956 47.9688 145.607 47.9688Z" fill="#30333C"/>
<path d="M156.57 34V50H153.742V34H156.57Z" fill="#30333C"/>
<path d="M0 14C0 6.26801 6.26801 0 14 0H46C53.732 0 60 6.26801 60 14V46C60 53.732 53.732 60 46 60H14C6.26801 60 0 53.732 0 46V14Z" fill="#30333C"/>
<path d="M23.7513 50C27.4766 50 30.5 47.0134 30.5 43.3334V36.6667H23.7513C20.0261 36.6667 17.0027 39.6534 17.0027 43.3334C17.0027 47.0134 20.0261 50 23.7513 50Z" fill="#0ACF83"/>
<path d="M17.0027 30C17.0027 26.32 20.0261 23.3333 23.7513 23.3333H30.5V36.6666H23.7513C20.0261 36.6666 17.0027 33.68 17.0027 30Z" fill="#A259FF"/>
<path d="M17.0041 16.6667C17.0041 12.9867 20.0275 10 23.7528 10H30.5014V23.3333H23.7528C20.0275 23.3333 17.0041 20.3467 17.0041 16.6667Z" fill="#F24E1E"/>
<path d="M30.5 10H37.2487C40.9739 10 43.9973 12.9867 43.9973 16.6667C43.9973 20.3467 40.9739 23.3333 37.2487 23.3333H30.5V10Z" fill="#FF7262"/>
<path d="M43.9973 30C43.9973 33.68 40.9739 36.6666 37.2487 36.6666C33.5234 36.6666 30.5 33.68 30.5 30C30.5 26.32 33.5234 23.3333 37.2487 23.3333C40.9739 23.3333 43.9973 26.32 43.9973 30Z" fill="#1ABCFE"/>
</svg>
