<svg width="50" height="50" viewBox="0 0 50 50" fill="none" xmlns="http://www.w3.org/2000/svg">
<mask id="mask0" mask-type="alpha" maskUnits="userSpaceOnUse" x="8" y="8" width="34" height="34">
<path d="M8 8.01074H41.9893V41.996H8V8.01074Z" fill="white"/>
</mask>
<g mask="url(#mask0)">
<path fill-rule="evenodd" clip-rule="evenodd" d="M24.9947 8.01074C20.3792 8.01074 19.8004 8.03031 17.9878 8.11301C16.1789 8.19552 14.9435 8.48283 13.8625 8.90297C12.745 9.33721 11.7972 9.91832 10.8524 10.8631C9.90758 11.8079 9.32647 12.7557 8.89223 13.8732C8.47209 14.9542 8.18477 16.1896 8.10227 17.9985C8.01956 19.8112 8 20.3899 8 25.0054C8 29.6208 8.01956 30.1996 8.10227 32.0122C8.18477 33.8211 8.47209 35.0565 8.89223 36.1375C9.32647 37.2551 9.90758 38.2028 10.8524 39.1477C11.7972 40.0924 12.745 40.6735 13.8625 41.1079C14.9435 41.5279 16.1789 41.8152 17.9878 41.8977C19.8004 41.9805 20.3792 42 24.9947 42C29.6101 42 30.1888 41.9805 32.0015 41.8977C33.8104 41.8152 35.0458 41.5279 36.1268 41.1079C37.2443 40.6735 38.1921 40.0924 39.1369 39.1477C40.0817 38.2028 40.6628 37.2551 41.0971 36.1375C41.5172 35.0565 41.8045 33.8211 41.887 32.0122C41.9697 30.1996 41.9893 29.6208 41.9893 25.0054C41.9893 20.3899 41.9697 19.8112 41.887 17.9985C41.8045 16.1896 41.5172 14.9542 41.0971 13.8732C40.6628 12.7557 40.0817 11.8079 39.1369 10.8631C38.1921 9.91832 37.2443 9.33721 36.1268 8.90297C35.0458 8.48283 33.8104 8.19552 32.0015 8.11301C30.1888 8.03031 29.6101 8.01074 24.9947 8.01074ZM24.9947 11.0728C29.5324 11.0728 30.0699 11.0902 31.8619 11.1719C33.5189 11.2475 34.4187 11.5243 35.0176 11.7571C35.8109 12.0654 36.377 12.4336 36.9716 13.0284C37.5664 13.623 37.9346 14.1892 38.2429 14.9824C38.4757 15.5813 38.7525 16.4811 38.8281 18.1381C38.9098 19.9301 38.9272 20.4676 38.9272 25.0054C38.9272 29.5431 38.9098 30.0807 38.8281 31.8727C38.7525 33.5296 38.4757 34.4295 38.2429 35.0283C37.9346 35.8216 37.5664 36.3877 36.9716 36.9824C36.377 37.5771 35.8109 37.9454 35.0176 38.2537C34.4187 38.4864 33.5189 38.7633 31.8619 38.8388C30.0702 38.9206 29.5327 38.9379 24.9947 38.9379C20.4565 38.9379 19.9192 38.9206 18.1273 38.8388C16.4704 38.7633 15.5705 38.4864 14.9717 38.2537C14.1784 37.9454 13.6123 37.5771 13.0176 36.9824C12.423 36.3877 12.0546 35.8216 11.7463 35.0283C11.5136 34.4295 11.2367 33.5296 11.1612 31.8727C11.0794 30.0807 11.0621 29.5431 11.0621 25.0054C11.0621 20.4676 11.0794 19.9301 11.1612 18.1381C11.2367 16.4811 11.5136 15.5813 11.7463 14.9824C12.0546 14.1892 12.4229 13.623 13.0176 13.0284C13.6123 12.4336 14.1784 12.0654 14.9717 11.7571C15.5705 11.5243 16.4704 11.2475 18.1273 11.1719C19.9194 11.0902 20.4569 11.0728 24.9947 11.0728Z" fill="#0A0B09"/>
</g>
<path fill-rule="evenodd" clip-rule="evenodd" d="M24.9946 30.6702C21.866 30.6702 19.3297 28.134 19.3297 25.0054C19.3297 21.8767 21.866 19.3405 24.9946 19.3405C28.1233 19.3405 30.6595 21.8767 30.6595 25.0054C30.6595 28.134 28.1233 30.6702 24.9946 30.6702ZM24.9946 16.2784C20.1748 16.2784 16.2676 20.1855 16.2676 25.0054C16.2676 29.8252 20.1748 33.7323 24.9946 33.7323C29.8144 33.7323 33.7216 29.8252 33.7216 25.0054C33.7216 20.1855 29.8144 16.2784 24.9946 16.2784Z" fill="#0A0B09"/>
<path fill-rule="evenodd" clip-rule="evenodd" d="M36.1058 15.9336C36.1058 17.0599 35.1927 17.9729 34.0664 17.9729C32.9401 17.9729 32.027 17.0599 32.027 15.9336C32.027 14.8073 32.9401 13.8942 34.0664 13.8942C35.1927 13.8942 36.1058 14.8073 36.1058 15.9336Z" fill="#0A0B09"/>
</svg>
