<svg width="50" height="50" viewBox="0 0 50 50" fill="none" xmlns="http://www.w3.org/2000/svg">
<path d="M18.0889 29.5999C18.0889 31.1777 16.8 32.4666 15.2222 32.4666C13.6445 32.4666 12.3556 31.1777 12.3556 29.5999C12.3556 28.0222 13.6445 26.7333 15.2222 26.7333H18.0889V29.5999Z" fill="#E01E5A"/>
<path d="M19.5333 29.5999C19.5333 28.0222 20.8222 26.7333 22.4 26.7333C23.9777 26.7333 25.2666 28.0222 25.2666 29.5999V36.7777C25.2666 38.3555 23.9777 39.6444 22.4 39.6444C20.8222 39.6444 19.5333 38.3555 19.5333 36.7777V29.5999Z" fill="#E01E5A"/>
<path d="M22.4 18.0889C20.8222 18.0889 19.5333 16.8 19.5333 15.2222C19.5333 13.6444 20.8222 12.3555 22.4 12.3555C23.9777 12.3555 25.2666 13.6444 25.2666 15.2222V18.0889H22.4Z" fill="#36C5F0"/>
<path d="M22.4 19.5333C23.9778 19.5333 25.2667 20.8222 25.2667 22.4C25.2667 23.9778 23.9778 25.2666 22.4 25.2666H15.2222C13.6445 25.2666 12.3556 23.9778 12.3556 22.4C12.3556 20.8222 13.6445 19.5333 15.2222 19.5333H22.4Z" fill="#36C5F0"/>
<path d="M33.9111 22.4C33.9111 20.8222 35.2 19.5333 36.7778 19.5333C38.3556 19.5333 39.6445 20.8222 39.6445 22.4C39.6445 23.9778 38.3556 25.2666 36.7778 25.2666H33.9111V22.4Z" fill="#2EB67D"/>
<path d="M32.4667 22.4C32.4667 23.9777 31.1778 25.2666 29.6001 25.2666C28.0223 25.2666 26.7334 23.9777 26.7334 22.4V15.2222C26.7334 13.6444 28.0223 12.3555 29.6001 12.3555C31.1778 12.3555 32.4667 13.6444 32.4667 15.2222V22.4Z" fill="#2EB67D"/>
<path d="M29.6001 33.9111C31.1778 33.9111 32.4667 35.2 32.4667 36.7777C32.4667 38.3555 31.1778 39.6444 29.6001 39.6444C28.0223 39.6444 26.7334 38.3555 26.7334 36.7777V33.9111H29.6001Z" fill="#ECB22E"/>
<path d="M29.6001 32.4666C28.0223 32.4666 26.7334 31.1777 26.7334 29.5999C26.7334 28.0222 28.0223 26.7333 29.6001 26.7333H36.7778C38.3556 26.7333 39.6445 28.0222 39.6445 29.5999C39.6445 31.1777 38.3556 32.4666 36.7778 32.4666H29.6001Z" fill="#ECB22E"/>
</svg>
