<svg width="50" height="50" viewBox="0 0 50 50" fill="none" xmlns="http://www.w3.org/2000/svg">
<path d="M19.2025 37.6988C30.995 37.6988 37.445 27.9288 37.445 19.4563C37.445 19.1788 37.445 18.9025 37.4263 18.6275C38.681 17.7199 39.7642 16.5961 40.625 15.3088C39.4548 15.8273 38.2135 16.1673 36.9425 16.3175C38.2809 15.5162 39.2827 14.256 39.7612 12.7713C38.5027 13.5181 37.1258 14.0444 35.69 14.3275C34.7233 13.2996 33.4448 12.619 32.0523 12.3909C30.6599 12.1628 29.231 12.4001 27.9869 13.0659C26.7429 13.7317 25.7529 14.7889 25.1702 16.0741C24.5876 17.3592 24.4447 18.8005 24.7638 20.175C22.2147 20.0472 19.721 19.3848 17.4445 18.2308C15.1681 17.0767 13.1598 15.4568 11.55 13.4763C10.7301 14.8877 10.479 16.5586 10.8478 18.1487C11.2166 19.7388 12.1775 21.1286 13.535 22.035C12.5147 22.0048 11.5166 21.7295 10.625 21.2325C10.625 21.2588 10.625 21.2863 10.625 21.3138C10.6254 22.794 11.1378 24.2286 12.0754 25.3741C13.0129 26.5197 14.3178 27.3057 15.7688 27.5988C14.8248 27.8562 13.8345 27.8938 12.8737 27.7088C13.2834 28.9827 14.0811 30.0968 15.1551 30.8951C16.2291 31.6935 17.5258 32.1361 18.8638 32.1613C16.5934 33.9456 13.7888 34.9142 10.9012 34.9113C10.3911 34.9103 9.88151 34.8794 9.375 34.8188C12.307 36.7004 15.7186 37.6984 19.2025 37.6938" fill="#1DA1F2"/>
</svg>
